<svg width="180" height="180" viewBox="0 0 180 180" fill="none" xmlns="http://www.w3.org/2000/svg">
<g clip-path="url(#clip0)">
<path d="M174.054 122.812L122.811 174.054C114.884 181.982 102.032 181.982 94.1045 174.054L5.94456 85.8943C-1.98282 77.9669 -1.98282 65.1145 5.94456 57.1875L57.1873 5.9448C65.1146 -1.98258 77.9671 -1.98258 85.8941 5.9448L174.054 94.1044C181.981 102.032 181.981 114.885 174.054 122.812Z" fill="#59636F"/>
<path d="M64.0567 16.569L50.1636 30.462C48.5514 32.0743 48.1014 34.46 48.8509 36.613C49.9281 39.7064 48.6442 43.1426 45.8935 45.8932C43.1429 48.6438 39.7067 49.9277 36.6133 48.8505C34.4604 48.1006 32.0747 48.551 30.4624 50.1632L16.569 64.0566C12.4353 68.1903 12.4353 74.8925 16.569 79.0262L100.974 163.431C105.108 167.564 111.81 167.564 115.943 163.431L163.431 115.943C167.564 111.81 167.564 105.108 163.431 100.974L79.0258 16.569C74.8922 12.4353 68.1903 12.4353 64.0567 16.569Z" fill="#2280FF"/>
<path d="M85.4956 108.979C82.5259 108.979 79.595 108.181 77.0201 106.672C73.1645 104.413 67.208 104.413 65.2509 104.413C49.0477 104.413 35.8662 91.2311 35.8662 75.0283C35.8662 58.8255 49.048 45.6436 65.2509 45.6436C67.208 45.6436 73.1649 45.6436 77.0208 43.3841C79.595 41.8756 82.5259 41.0779 85.4956 41.0779C92.4224 41.0779 98.5168 45.2439 101.022 51.6916C101.604 53.1882 102.136 54.7277 102.615 56.2907C111.116 58.2827 117.467 65.9281 117.467 75.0283C117.467 84.1285 111.117 91.7743 102.615 93.7662C102.136 95.3296 101.604 96.8691 101.022 98.3657C98.5168 104.813 92.4224 108.979 85.4956 108.979Z" fill="#E16E7E"/>
<path d="M64.0567 16.569L50.1636 30.4621C48.5514 32.0743 48.1013 34.46 48.8509 36.613C49.9281 39.7064 48.6442 43.1426 45.8935 45.8932C43.1429 48.6438 39.7067 49.9277 36.6133 48.8505C34.4604 48.1006 32.0747 48.551 30.4624 50.1633L16.569 64.0563C12.4353 68.19 12.4353 74.8922 16.569 79.0258L31.1655 93.6224C45.9635 95.0262 62.7928 88.8854 75.8389 75.8389C88.8854 62.7924 95.0258 45.9635 93.6224 31.1655L79.0258 16.569C74.8922 12.4353 68.1903 12.4353 64.0567 16.569Z" fill="#FFCC00"/>
<path d="M93.2057 42.9457C90.884 41.7416 88.2564 41.0779 85.4956 41.0779C82.5259 41.0779 79.595 41.8756 77.0208 43.3841C73.1649 45.6436 67.2084 45.6436 65.2509 45.6436C49.0477 45.6436 35.8662 58.8255 35.8662 75.0283C35.8662 81.9347 38.2674 88.2878 42.2706 93.3095C53.9474 91.6171 65.9744 85.7042 75.8389 75.8397C85.5135 66.1647 91.3864 54.4102 93.2057 42.9457Z" fill="#E16E7E"/>
<path d="M104.129 80.9541C107.4 77.6827 107.4 72.3788 104.129 69.1075C100.857 65.8361 95.5535 65.8361 92.2822 69.1074C89.0108 72.3788 89.0108 77.6827 92.2822 80.9541C95.5535 84.2254 100.857 84.2254 104.129 80.9541Z" fill="#F6EE86"/>
<path d="M94.6505 75.0306C94.6505 67.5159 92.8441 60.6454 90.8947 55.6289C89.5929 52.2782 85.6153 50.9433 82.5138 52.7609C77.0094 55.9865 70.4064 56.5113 65.2511 56.5113C55.0231 56.5113 46.7314 64.8029 46.7314 75.0309C46.7314 85.2589 55.0231 93.5505 65.2511 93.5505C70.4064 93.5505 77.0094 94.0754 82.5138 97.301C85.6153 99.1186 89.5929 97.7834 90.8947 94.433C92.8441 89.4158 94.6505 82.5452 94.6505 75.0306Z" fill="#F6EE86"/>
<path d="M62.5489 56.707C53.602 58.0152 46.7314 65.7183 46.7314 75.0284C46.7314 85.2564 55.023 93.548 65.2511 93.548C68.2098 93.548 71.6449 93.7241 75.0762 94.481C61.0126 82.8777 59.0495 68.1258 62.5489 56.707Z" fill="#F2D98D"/>
<path d="M77.5449 54.919C79.598 59.9868 81.5823 67.1527 81.5823 75.028C81.5823 82.9034 79.598 90.0693 77.5449 95.1371C79.2514 95.67 80.9287 96.3689 82.5139 97.2978C85.6154 99.1153 89.593 97.7801 90.8948 94.4297C92.8442 89.4133 94.6506 82.5423 94.6506 75.028C94.6506 67.5134 92.8442 60.6428 90.8948 55.6264C89.593 52.2756 85.6154 50.9407 82.5139 52.758C80.9287 53.6871 79.2514 54.386 77.5449 54.919Z" fill="#E0B799"/>
<path d="M166.654 53.493C165.197 53.493 164.017 52.3124 164.017 50.8563C164.017 32.8032 149.33 18.116 131.276 18.116C129.82 18.116 128.64 16.9354 128.64 15.4792C128.64 14.0231 129.82 12.8425 131.276 12.8425C152.237 12.8425 169.29 29.8954 169.29 50.8563C169.29 52.3124 168.11 53.493 166.654 53.493Z" fill="#F2D98D"/>
<path d="M151.588 53.4931C150.131 53.4931 148.951 52.3125 148.951 50.8564C148.951 41.1111 141.023 33.1826 131.277 33.1826C129.821 33.1826 128.641 32.0021 128.641 30.5459C128.641 29.0897 129.821 27.9092 131.277 27.9092C143.93 27.9092 154.225 38.2033 154.225 50.8564C154.225 52.3125 153.044 53.4931 151.588 53.4931Z" fill="#F2D98D"/>
</g>
<defs>
<clipPath id="clip0">
<rect width="180" height="180" fill="white"/>
</clipPath>
</defs>
</svg>
