<svg height="512" viewBox="0 0 512 512" width="512" xmlns="http://www.w3.org/2000/svg"><g><g><path d="m429.14 322.56a209.329 209.329 0 0 0 2.86-34.56c0-114.88-93.12-208-208-208s-208 93.12-208 208 93.12 208 208 208a207.057 207.057 0 0 0 114.35-34.22" fill="#e0e0e2"/><path d="m388.53 322.16a168.022 168.022 0 1 0 -164.53 133.84 167.151 167.151 0 0 0 97.6-31.25" fill="#96c8ef"/><circle cx="224" cy="288" fill="#ffda44" r="16"/><g fill="#e0e0e2"><path d="m235.314 276.686 45.255-45.255"/><path d="m342.794 169.206-16.971 16.971"/><path d="m122.177 389.823-16.971 16.971"/><path d="m122.177 186.177-16.971-16.971"/></g><path d="m184 56h80v24h-80z" fill="#ffda44"/><path d="m241.88 56a24 24 0 1 0 -35.76 0" fill="#787680"/><circle cx="408" cy="408" fill="#e0e0e2" r="88"/><path d="m442.77 403.17-19.8 19.8-33.94-33.94 19.8-19.8a20 20 0 0 1 28.28 0l5.66 5.66a20 20 0 0 1 0 28.28z" fill="#d80027"/><path d="m422.97 422.97-19.8 19.8a20 20 0 0 1 -28.28 0l-5.66-5.66a20 20 0 0 1 0-28.28l19.8-19.8z" fill="#00d7df"/></g><g><path d="m274.911 225.774-40.561 40.561a24.006 24.006 0 1 0 6.62 38.636 24.037 24.037 0 0 0 4.694-27.32l40.561-40.561a8 8 0 0 0 -11.315-11.315zm-45.254 67.882a8 8 0 1 1 0-11.318h.006a8 8 0 0 1 0 11.307z"/><path d="m438.08 316.83a218.473 218.473 0 0 0 1.92-28.83 216.185 216.185 0 0 0 -168-210.68v-21.32a8 8 0 0 0 -8-8h-9.02a32 32 0 1 0 -61.96 0h-9.02a8 8 0 0 0 -8 8v21.32a216.044 216.044 0 1 0 160.75 394.95 95.981 95.981 0 1 0 101.33-155.44zm-214.08-292.83a15.978 15.978 0 0 1 13.84 24h-27.68a15.978 15.978 0 0 1 13.84-24zm-32 40h64v8h-64zm32 424c-110.28 0-200-89.72-200-200s89.72-200 200-200 200 89.72 200 200a202.166 202.166 0 0 1 -1.56 25.09 95.493 95.493 0 0 0 -14.44-1.09c-3.28 0-6.51.17-9.71.49a177.443 177.443 0 0 0 1.71-24.49 175.426 175.426 0 0 0 -50.78-123.55 7.2 7.2 0 0 0 -.77-.9 8.144 8.144 0 0 0 -.9-.77 175.691 175.691 0 0 0 -247.1 0 8.144 8.144 0 0 0 -.9.77 7.2 7.2 0 0 0 -.77.9 175.691 175.691 0 0 0 0 247.1 7.2 7.2 0 0 0 .77.9 8.144 8.144 0 0 0 .9.77 175.876 175.876 0 0 0 216.24 24.42 95.356 95.356 0 0 0 10.31 21.83 199.143 199.143 0 0 1 -103 28.53zm144-192h15.8a162.22 162.22 0 0 1 -2.19 19.69 96.008 96.008 0 0 0 -68.72 105.35 158.632 158.632 0 0 1 -80.89 26.76v-15.8a8 8 0 0 0 -16 0v15.8a159.4 159.4 0 0 1 -99.28-41.2l11.11-11.12a8 8 0 0 0 -11.31-11.31l-11.12 11.11a159.4 159.4 0 0 1 -41.2-99.28h15.8a8 8 0 0 0 0-16h-15.8a159.4 159.4 0 0 1 41.2-99.28l11.12 11.11a8 8 0 0 0 11.31-11.31l-11.11-11.12a159.4 159.4 0 0 1 99.28-41.2v15.8a8 8 0 0 0 16 0v-15.8a159.4 159.4 0 0 1 99.28 41.2l-11.11 11.12a8 8 0 1 0 11.31 11.31l11.12-11.11a159.4 159.4 0 0 1 41.2 99.28h-15.8a8 8 0 0 0 0 16zm40 192a80 80 0 1 1 80-80 80.093 80.093 0 0 1 -80 80z"/><path d="m448.43 369.23-5.66-5.66a28 28 0 0 0 -39.6 0l-39.6 39.6a28 28 0 0 0 0 39.6l5.66 5.66a28 28 0 0 0 39.6 0l39.6-39.6a28 28 0 0 0 0-39.6zm-50.92 67.88a12.011 12.011 0 0 1 -16.97 0l-5.65-5.65a12.011 12.011 0 0 1 0-16.97l14.14-14.15 22.63 22.63zm39.6-39.6-14.14 14.15-22.63-22.63 14.15-14.14a12.011 12.011 0 0 1 16.97 0l5.65 5.65a12.011 12.011 0 0 1 0 16.97z"/></g></g></svg>