<svg width="292" height="306" viewBox="0 0 292 306" fill="none" xmlns="http://www.w3.org/2000/svg">
<g clip-path="url(#clip0)">
<path d="M197.975 11.8269C182.39 -3.75765 157.053 -3.80925 141.468 11.8269L102.352 50.9433L158.91 107.502L197.975 68.334C213.56 52.6978 213.56 27.4115 197.975 11.8269ZM157.878 34.9458L140.075 52.4914L140.023 52.543C137.959 54.5556 134.708 54.504 132.747 52.4398C130.734 50.3756 130.786 47.1245 132.85 45.1635L150.705 27.618L150.757 27.5664C152.821 25.5538 156.072 25.6054 158.033 27.6696C159.994 29.6822 159.942 32.9849 157.878 34.9458Z" fill="#87F7CC"/>
<path d="M95.0241 58.2192L55.6497 97.6452C40.1168 113.281 40.1168 138.516 55.6497 154.152C71.3892 169.685 96.727 169.685 112.466 154.152L151.634 114.83L95.0241 58.2192Z" fill="#3BDBE1"/>
<path d="M235.75 135.936L180.068 191.669C195.911 203.796 218.256 202.351 232.344 188.263C246.484 174.175 247.928 151.779 235.75 135.936Z" fill="#04AFEE"/>
<path d="M204.271 120.455C182.339 120.455 164.535 138.207 164.535 160.19C164.535 168.963 167.425 177.478 172.74 184.393L228.422 128.711C221.507 123.344 213.044 120.455 204.271 120.455Z" fill="#87F7CC"/>
</g>
<path d="M0.597657 286V274.9H15.5977V227.3H0.597657V216.2H45.5977V227.3H30.5977V274.9H45.5977V286H0.597657ZM73.0586 239.6H71.9586V286H59.1586V216.2H77.1586L93.0586 262.6H94.1586V216.2H106.959V286H88.9586L73.0586 239.6ZM144.42 287.2C135.753 287.2 129.186 284.8 124.72 280C120.253 275.2 118.02 268.667 118.02 260.4C118.02 256.2 118.586 252.433 119.72 249.1C120.92 245.7 122.586 242.833 124.72 240.5C126.92 238.1 129.553 236.3 132.62 235.1C135.753 233.833 139.253 233.2 143.12 233.2C146.986 233.2 150.453 233.833 153.52 235.1C156.586 236.3 159.186 238.033 161.32 240.3C163.453 242.567 165.086 245.333 166.22 248.6C167.42 251.8 168.02 255.4 168.02 259.4V263.8H132.72V264.7C132.72 268.033 133.753 270.733 135.82 272.8C137.886 274.8 140.92 275.8 144.92 275.8C147.986 275.8 150.62 275.233 152.82 274.1C155.02 272.9 156.92 271.333 158.52 269.4L166.52 278.1C164.52 280.567 161.72 282.7 158.12 284.5C154.52 286.3 149.953 287.2 144.42 287.2ZM143.22 243.8C140.02 243.8 137.453 244.8 135.52 246.8C133.653 248.733 132.72 251.367 132.72 254.7V255.5H153.52V254.7C153.52 251.3 152.586 248.633 150.72 246.7C148.92 244.767 146.42 243.8 143.22 243.8ZM180.38 274.5H192.28V245.9H180.38V234.4H207.08V249H207.78C208.247 247.133 208.88 245.333 209.68 243.6C210.547 241.8 211.614 240.233 212.88 238.9C214.214 237.5 215.814 236.4 217.68 235.6C219.547 234.8 221.747 234.4 224.28 234.4H229.18V248H218.18C214.514 248 211.747 249.1 209.88 251.3C208.014 253.433 207.08 256.067 207.08 259.2V274.5H224.08V286H180.38V274.5ZM275.941 234.4H291.041L266.741 294.3C265.208 298.1 263.175 301 260.641 303C258.108 305 254.641 306 250.241 306H240.041V294.5H252.441L255.641 285.7L234.841 234.4H250.741L258.241 256.1L262.941 271.1H263.741L268.241 256.1L275.941 234.4Z" fill="url(#paint0_linear)"/>
<defs>
<linearGradient id="paint0_linear" x1="143" y1="183" x2="143" y2="313" gradientUnits="userSpaceOnUse">
<stop offset="0.161458" stop-color="#87F7CC"/>
<stop offset="0.755208" stop-color="#367EE7" stop-opacity="0.99"/>
</linearGradient>
<clipPath id="clip0">
<rect width="200" height="200" fill="white" transform="translate(44)"/>
</clipPath>
</defs>
</svg>
