<svg width="173" height="65" viewBox="0 0 173 65" fill="none" xmlns="http://www.w3.org/2000/svg">
<path d="M65.3845 49.27C64.3945 49.27 63.5695 49 62.9095 48.46C62.2795 47.92 61.9645 47.125 61.9645 46.075V29.65C61.9645 28.6 62.2945 27.805 62.9545 27.265C63.6145 26.725 64.4245 26.455 65.3845 26.455C66.3445 26.455 67.1395 26.725 67.7695 27.265C68.4295 27.805 68.7595 28.6 68.7595 29.65V46.075C68.7595 47.125 68.4295 47.92 67.7695 48.46C67.1395 49 66.3445 49.27 65.3845 49.27ZM65.3845 22.855C64.1845 22.855 63.2395 22.555 62.5495 21.955C61.8595 21.325 61.5145 20.485 61.5145 19.435C61.5145 18.385 61.8595 17.56 62.5495 16.96C63.2395 16.36 64.1845 16.06 65.3845 16.06C66.5545 16.06 67.4845 16.375 68.1745 17.005C68.8945 17.605 69.2545 18.415 69.2545 19.435C69.2545 20.485 68.9095 21.325 68.2195 21.955C67.5295 22.555 66.5845 22.855 65.3845 22.855ZM98.7116 17.05C99.7016 17.05 100.497 17.38 101.097 18.04C101.727 18.67 102.042 19.495 102.042 20.515V45.76C102.042 46.81 101.727 47.665 101.097 48.325C100.497 48.955 99.7016 49.27 98.7116 49.27C97.6316 49.27 96.7616 48.88 96.1016 48.1L81.0266 28.795V45.76C81.0266 46.81 80.7266 47.665 80.1266 48.325C79.5566 48.955 78.7766 49.27 77.7866 49.27C76.7966 49.27 76.0016 48.955 75.4016 48.325C74.8016 47.665 74.5016 46.81 74.5016 45.76V20.515C74.5016 19.495 74.8016 18.67 75.4016 18.04C76.0316 17.38 76.8416 17.05 77.8316 17.05C78.9416 17.05 79.7966 17.44 80.3966 18.22L95.4716 37.39V20.515C95.4716 19.495 95.7716 18.67 96.3716 18.04C96.9716 17.38 97.7516 17.05 98.7116 17.05ZM125.529 42.43C126.129 42.43 126.609 42.67 126.969 43.15C127.359 43.63 127.554 44.245 127.554 44.995C127.554 45.505 127.404 45.985 127.104 46.435C126.804 46.855 126.384 47.215 125.844 47.515C124.824 48.055 123.639 48.505 122.289 48.865C120.939 49.195 119.694 49.36 118.554 49.36C116.154 49.36 114.054 48.895 112.254 47.965C110.484 47.035 109.119 45.715 108.159 44.005C107.199 42.265 106.719 40.225 106.719 37.885C106.719 35.635 107.184 33.64 108.114 31.9C109.044 30.16 110.334 28.81 111.984 27.85C113.634 26.86 115.509 26.365 117.609 26.365C119.619 26.365 121.374 26.815 122.874 27.715C124.404 28.585 125.589 29.845 126.429 31.495C127.269 33.115 127.689 35.02 127.689 37.21C127.689 37.87 127.524 38.38 127.194 38.74C126.894 39.07 126.459 39.235 125.889 39.235H113.289C113.499 41.005 114.039 42.295 114.909 43.105C115.779 43.885 117.024 44.275 118.644 44.275C119.514 44.275 120.294 44.17 120.984 43.96C121.674 43.75 122.439 43.465 123.279 43.105C123.699 42.925 124.104 42.775 124.494 42.655C124.884 42.505 125.229 42.43 125.529 42.43ZM117.789 31.045C116.499 31.045 115.464 31.465 114.684 32.305C113.904 33.115 113.439 34.3 113.289 35.86H121.974C121.884 34.27 121.479 33.07 120.759 32.26C120.069 31.45 119.079 31.045 117.789 31.045ZM144.979 26.455C145.879 26.395 146.584 26.605 147.094 27.085C147.634 27.535 147.904 28.225 147.904 29.155C147.904 30.145 147.664 30.88 147.184 31.36C146.704 31.84 145.849 32.14 144.619 32.26L143.269 32.395C141.619 32.575 140.419 33.115 139.669 34.015C138.949 34.915 138.589 36.07 138.589 37.48V46.075C138.589 47.125 138.259 47.92 137.599 48.46C136.969 49 136.174 49.27 135.214 49.27C134.224 49.27 133.399 49 132.739 48.46C132.109 47.92 131.794 47.125 131.794 46.075V29.56C131.794 28.57 132.124 27.805 132.784 27.265C133.444 26.725 134.239 26.455 135.169 26.455C136.069 26.455 136.819 26.725 137.419 27.265C138.019 27.775 138.319 28.495 138.319 29.425V30.64C138.859 29.35 139.669 28.36 140.749 27.67C141.859 26.98 143.059 26.59 144.349 26.5L144.979 26.455ZM166.292 28.39C166.562 27.76 166.937 27.295 167.417 26.995C167.927 26.695 168.467 26.545 169.037 26.545C169.907 26.545 170.672 26.83 171.332 27.4C171.992 27.94 172.322 28.6 172.322 29.38C172.322 29.8 172.217 30.22 172.007 30.64L159.902 55.48C159.602 56.11 159.197 56.575 158.687 56.875C158.177 57.205 157.637 57.37 157.067 57.37C156.227 57.37 155.492 57.1 154.862 56.56C154.232 56.02 153.917 55.36 153.917 54.58C153.917 54.1 154.022 53.65 154.232 53.23L157.202 47.065L149.192 30.64C149.012 30.22 148.922 29.815 148.922 29.425C148.922 28.615 149.267 27.925 149.957 27.355C150.677 26.785 151.487 26.5 152.387 26.5C152.987 26.5 153.542 26.665 154.052 26.995C154.562 27.295 154.967 27.76 155.267 28.39L160.847 40.54L166.292 28.39Z" fill="white"/>
<g clip-path="url(#clip0)">
<path d="M50.042 3.84361C44.977 -1.22138 36.7422 -1.23815 31.6772 3.84361L18.9644 16.5564L37.3459 34.938L50.042 22.2084C55.107 17.1266 55.107 8.90861 50.042 3.84361ZM37.0105 11.3572L31.2243 17.0596L31.2076 17.0763C30.5367 17.7304 29.4801 17.7136 28.8428 17.0428C28.1887 16.3719 28.2055 15.3153 28.8763 14.678L34.6793 8.97569L34.696 8.95892C35.3669 8.30483 36.4235 8.3216 37.0608 8.99246C37.6981 9.64655 37.6814 10.7199 37.0105 11.3572Z" fill="#FFCC00"/>
<path d="M16.5828 18.9211L3.78617 31.7346C-1.26206 36.8163 -1.26206 45.0176 3.78617 50.0994C8.90148 55.1476 17.1363 55.1476 22.2516 50.0994L34.9812 37.3195L16.5828 18.9211Z" fill="#DD3355"/>
</g>
<defs>
<clipPath id="clip0">
<rect width="65" height="65" fill="white"/>
</clipPath>
</defs>
</svg>
