<svg width="65" height="65" viewBox="0 0 65 65" fill="none" xmlns="http://www.w3.org/2000/svg">
<g clip-path="url(#clip0)">
<path d="M50.0415 3.84361C44.9765 -1.22138 36.7417 -1.23815 31.6767 3.84361L18.9639 16.5564L37.3454 34.938L50.0415 22.2084C55.1065 17.1266 55.1065 8.90861 50.0415 3.84361ZM37.01 11.3572L31.2238 17.0596L31.2071 17.0763C30.5362 17.7304 29.4796 17.7136 28.8423 17.0428C28.1882 16.3719 28.205 15.3153 28.8758 14.678L34.6788 8.97569L34.6955 8.95892C35.3664 8.30483 36.423 8.3216 37.0603 8.99246C37.6976 9.64655 37.6809 10.7199 37.01 11.3572Z" fill="#FFCC00"/>
<path d="M16.5828 18.9211L3.78617 31.7346C-1.26206 36.8163 -1.26206 45.0176 3.78617 50.0994C8.90148 55.1476 17.1363 55.1476 22.2516 50.0994L34.9812 37.3195L16.5828 18.9211Z" fill="#DD3355"/>
</g>
<defs>
<clipPath id="clip0">
<rect width="65" height="65" fill="white"/>
</clipPath>
</defs>
</svg>
