<svg width="512" height="438" viewBox="0 0 512 438" fill="none" xmlns="http://www.w3.org/2000/svg">
<path d="M396.836 365.563C394.686 357.662 393.928 349.447 394.596 341.286L398.597 303.601C400.55 279.956 396.946 256.266 386.479 234.975C359.434 179.962 365.638 175.97 364.798 121.371C364.798 110.218 355.756 101.175 344.602 101.175C333.448 101.175 324.406 110.217 324.406 121.371C324.406 343.403 324.819 327.11 323.45 333.62V362.694C323.45 387.19 303.521 407.12 279.025 407.12C262.756 407.12 206.651 407.12 168.473 407.12C185.457 430.74 208.692 449.234 235.656 460.433C235.823 460.502 235.99 460.572 236.157 460.643C256.99 469.442 280.251 487 284.138 508.785L284.514 510.341C339.375 503.981 388.706 479.507 426.374 443.044L396.836 365.563Z" fill="#F9BA8F"/>
<path d="M93.4631 101.881L87.3121 96.1821C77.8291 87.3961 62.8821 87.9661 54.0961 97.4481C45.3101 106.931 45.8801 121.878 55.3621 130.664L93.4631 165.967V101.881Z" fill="#F9BA8F"/>
<path d="M67.8631 112.997C62.0461 107.607 59.5991 99.9011 60.5921 92.5581C58.2181 93.7731 56.0071 95.3871 54.0961 97.4481C45.3101 106.931 45.8801 121.878 55.3621 130.664L93.4631 165.967V136.718L67.8631 112.997Z" fill="#FCAD6D"/>
<path d="M398.676 370.388C390.334 427.914 340.824 472.107 280.986 472.107C270.655 472.107 260.633 470.788 251.077 468.313C266.92 478 281.172 492.158 284.138 508.784L284.514 510.34C339.375 503.98 388.705 479.506 426.374 443.043L398.676 370.388Z" fill="#FD995B"/>
<path d="M289.615 408.075H127.38C108.195 408.075 92.5879 392.467 92.5879 373.282V34.793C92.5879 15.608 108.195 0 127.38 0H289.615C308.8 0 324.407 15.608 324.407 34.793V373.283C324.407 392.467 308.799 408.075 289.615 408.075V408.075Z" fill="#2A428C"/>
<path d="M127.38 0C108.195 0 92.5879 15.608 92.5879 34.792V373.282C92.5879 392.467 108.196 408.075 127.38 408.075H175.744C165.01 397.125 177.53 386.428 177.53 386.428C159.863 381.793 161.363 363.226 161.363 363.226C161.363 363.226 161.363 79.48 161.363 61.73C161.363 43.98 179.393 39.497 179.393 39.497C172.291 32.395 179.393 24.932 179.393 24.932V12.907C172.842 8.755 174.132 3.102 175.558 0L127.38 0Z" fill="#142766"/>
<path d="M182.867 24.933H179.393C176.072 24.933 173.38 22.241 173.38 18.92C173.38 15.599 176.072 12.907 179.393 12.907H182.867C186.188 12.907 188.88 15.599 188.88 18.92C188.88 22.241 186.188 24.933 182.867 24.933Z" fill="#3C58A0"/>
<path d="M236.771 24.933H203.389C200.068 24.933 197.376 22.241 197.376 18.92C197.376 15.599 200.068 12.907 203.389 12.907H236.771C240.092 12.907 242.784 15.599 242.784 18.92C242.784 22.241 240.092 24.933 236.771 24.933Z" fill="#3C58A0"/>
<path d="M289.615 21.646H265.232C260.686 21.646 257.002 25.331 257.002 29.876C257.002 35.167 252.673 39.497 247.382 39.497H169.615C164.324 39.497 159.994 35.168 159.994 29.876C159.994 25.331 156.309 21.646 151.764 21.646H127.38C120.12 21.646 114.234 27.532 114.234 34.792V373.282C114.234 380.542 120.12 386.428 127.38 386.428H289.615C296.875 386.428 302.761 380.542 302.761 373.282C302.761 338.463 302.761 44.085 302.761 34.792C302.761 27.532 296.875 21.646 289.615 21.646V21.646Z" fill="#73C3F9"/>
<path d="M177.529 386.429C175.029 375.642 187.541 373.122 187.541 373.122C187.541 373.122 195.499 303.413 187.541 295.455C179.583 287.497 187.541 279.982 187.541 279.982C187.541 279.982 196.235 211.01 187.541 202.315C178.847 193.621 187.541 186.842 187.541 186.842V109.175C171.969 99.343 180.16 85.196 180.16 85.196V62.921C168.393 51.154 179.388 39.502 179.392 39.498H169.614C164.323 39.498 159.993 35.169 159.993 29.877C159.993 25.332 156.308 21.647 151.763 21.647H127.38C120.12 21.647 114.234 27.532 114.234 34.793V373.284C114.234 380.544 120.12 386.43 127.38 386.43H177.529V386.429Z" fill="#4FABF7"/>
<path d="M159.588 85.1949H257.407C263.558 85.1949 268.544 80.2089 268.544 74.0579C268.544 67.9069 263.558 62.9209 257.407 62.9209H159.588C153.437 62.9209 148.45 67.9069 148.45 74.0579C148.45 80.2099 153.437 85.1949 159.588 85.1949V85.1949Z" fill="#E9EFFF"/>
<path d="M159.588 62.9209H180.16V85.1959H159.588C153.437 85.1959 148.451 80.2099 148.451 74.0589C148.45 67.9059 153.437 62.9209 159.588 62.9209Z" fill="#9BD8F9"/>
<path d="M277.174 186.841H139.821C134.311 186.841 129.803 182.333 129.803 176.823V119.192C129.803 113.682 134.311 109.174 139.821 109.174H277.174C282.684 109.174 287.192 113.682 287.192 119.192V176.823C287.192 182.333 282.684 186.841 277.174 186.841Z" fill="#E9EFFF"/>
<path d="M277.174 279.981H139.821C134.311 279.981 129.803 275.473 129.803 269.963V212.332C129.803 206.822 134.311 202.314 139.821 202.314H277.174C282.684 202.314 287.192 206.822 287.192 212.332V269.963C287.192 275.473 282.684 279.981 277.174 279.981Z" fill="#E9EFFF"/>
<path d="M277.174 373.121H139.821C134.311 373.121 129.803 368.613 129.803 363.103V305.472C129.803 299.962 134.311 295.454 139.821 295.454H277.174C282.684 295.454 287.192 299.962 287.192 305.472V363.103C287.192 368.613 282.684 373.121 277.174 373.121Z" fill="#E9EFFF"/>
<path d="M277.174 186.841H139.821C134.311 186.841 129.803 182.333 129.803 176.823V119.192C129.803 113.682 134.311 109.174 139.821 109.174H277.174C282.684 109.174 287.192 113.682 287.192 119.192V176.823C287.192 182.333 282.684 186.841 277.174 186.841Z" fill="#E9EFFF"/>
<path d="M277.174 279.981H139.821C134.311 279.981 129.803 275.473 129.803 269.963V212.332C129.803 206.822 134.311 202.314 139.821 202.314H277.174C282.684 202.314 287.192 206.822 287.192 212.332V269.963C287.192 275.473 282.684 279.981 277.174 279.981Z" fill="#E9EFFF"/>
<path d="M277.174 373.121H139.821C134.311 373.121 129.803 368.613 129.803 363.103V305.472C129.803 299.962 134.311 295.454 139.821 295.454H277.174C282.684 295.454 287.192 299.962 287.192 305.472V363.103C287.192 368.613 282.684 373.121 277.174 373.121Z" fill="#E9EFFF"/>
<path d="M177.523 176.823V119.193C177.523 113.683 182.031 109.175 187.541 109.175H139.821C134.311 109.175 129.803 113.683 129.803 119.193V176.823C129.803 182.333 134.311 186.841 139.821 186.841H187.541C182.031 186.841 177.523 182.333 177.523 176.823Z" fill="#D3DCFB"/>
<path d="M177.523 269.963V212.332C177.523 206.822 182.031 202.314 187.541 202.314H139.821C134.311 202.314 129.803 206.822 129.803 212.332V269.963C129.803 275.473 134.311 279.981 139.821 279.981H187.541C182.031 279.981 177.523 275.473 177.523 269.963V269.963Z" fill="#D3DCFB"/>
<path d="M177.523 363.103V305.472C177.523 299.962 182.031 295.454 187.541 295.454H139.821C134.311 295.454 129.803 299.962 129.803 305.472V363.103C129.803 368.613 134.311 373.121 139.821 373.121H187.541C182.031 373.121 177.523 368.613 177.523 363.103V363.103Z" fill="#D3DCFB"/>
<path d="M203.082 141.387H162.913C158.771 141.387 155.413 138.03 155.413 133.887C155.413 129.744 158.771 126.387 162.913 126.387H203.082C207.224 126.387 210.582 129.744 210.582 133.887C210.582 138.029 207.224 141.387 203.082 141.387Z" fill="#3C58A0"/>
<path d="M254.082 169.629H162.913C158.771 169.629 155.413 166.272 155.413 162.129C155.413 157.986 158.771 154.629 162.913 154.629H254.082C258.224 154.629 261.582 157.986 261.582 162.129C261.582 166.272 258.224 169.629 254.082 169.629Z" fill="#BEC8F7"/>
<path d="M234.415 141.387H228.748C224.606 141.387 221.248 138.03 221.248 133.887C221.248 129.744 224.606 126.387 228.748 126.387H234.415C238.557 126.387 241.915 129.744 241.915 133.887C241.915 138.029 238.558 141.387 234.415 141.387Z" fill="#BEC8F7"/>
<path d="M203.082 234.527H162.913C158.771 234.527 155.413 231.17 155.413 227.027C155.413 222.884 158.771 219.527 162.913 219.527H203.082C207.224 219.527 210.582 222.884 210.582 227.027C210.582 231.17 207.224 234.527 203.082 234.527Z" fill="#3C58A0"/>
<path d="M254.082 262.769H162.913C158.771 262.769 155.413 259.412 155.413 255.269C155.413 251.126 158.771 247.769 162.913 247.769H254.082C258.224 247.769 261.582 251.126 261.582 255.269C261.582 259.411 258.224 262.769 254.082 262.769Z" fill="#BEC8F7"/>
<path d="M234.415 234.527H228.748C224.606 234.527 221.248 231.17 221.248 227.027C221.248 222.884 224.606 219.527 228.748 219.527H234.415C238.557 219.527 241.915 222.884 241.915 227.027C241.915 231.17 238.558 234.527 234.415 234.527Z" fill="#BEC8F7"/>
<path d="M203.082 327.667H162.913C158.771 327.667 155.413 324.309 155.413 320.167C155.413 316.024 158.771 312.667 162.913 312.667H203.082C207.224 312.667 210.582 316.024 210.582 320.167C210.582 324.31 207.224 327.667 203.082 327.667Z" fill="#3C58A0"/>
<path d="M254.082 355.909H162.913C158.771 355.909 155.413 352.552 155.413 348.409C155.413 344.266 158.771 340.909 162.913 340.909H254.082C258.224 340.909 261.582 344.266 261.582 348.409C261.582 352.552 258.224 355.909 254.082 355.909Z" fill="#BEC8F7"/>
<path d="M234.415 327.667H228.748C224.606 327.667 221.248 324.309 221.248 320.167C221.248 316.024 224.606 312.667 228.748 312.667H234.415C238.557 312.667 241.915 316.024 241.915 320.167C241.915 324.31 238.558 327.667 234.415 327.667Z" fill="#BEC8F7"/>
<path d="M127.669 225.842C119.938 234.185 106.908 234.682 98.565 226.951L64.068 194.987C55.725 187.257 55.228 174.226 62.959 165.883C70.69 157.54 83.72 157.043 92.063 164.774L126.56 196.738C134.903 204.469 135.4 217.499 127.669 225.842V225.842Z" fill="#F9BA8F"/>
<path d="M112.757 212.422L78.26 180.458C72.49 175.112 70.479 167.232 72.34 160.12C68.862 161.124 65.599 163.035 62.959 165.884C55.228 174.227 55.725 187.258 64.068 194.988L98.565 226.952C106.908 234.682 119.938 234.186 127.669 225.843C130.053 223.27 131.649 220.249 132.479 217.077C125.772 219.012 118.251 217.513 112.757 212.422V212.422Z" fill="#FCAD6D"/>
<path d="M127.669 338.191C119.938 346.534 106.908 347.031 98.565 339.3L64.068 307.336C55.725 299.606 55.228 286.575 62.959 278.232C70.69 269.889 83.72 269.392 92.063 277.123L126.56 309.087C134.903 316.817 135.4 329.848 127.669 338.191V338.191Z" fill="#F9BA8F"/>
<path d="M112.757 324.77L78.26 292.806C72.49 287.46 70.479 279.58 72.34 272.468C68.862 273.472 65.599 275.383 62.959 278.232C55.228 286.575 55.725 299.606 64.068 307.336L98.565 339.3C106.908 347.03 119.938 346.534 127.669 338.191C130.053 335.618 131.649 332.597 132.479 329.425C125.772 331.361 118.251 329.861 112.757 324.77V324.77Z" fill="#FCAD6D"/>
<path d="M127.669 282.017C119.938 290.36 106.908 290.857 98.565 283.126L64.068 251.162C55.725 243.432 55.228 230.401 62.959 222.058C70.69 213.715 83.72 213.218 92.063 220.949L126.56 252.913C134.903 260.643 135.4 273.673 127.669 282.017V282.017Z" fill="#F9BA8F"/>
<path d="M112.757 268.596L78.26 236.632C72.49 231.286 70.479 223.406 72.34 216.294C68.862 217.298 65.598 219.209 62.959 222.058C55.228 230.401 55.725 243.431 64.068 251.162L98.565 283.126C106.908 290.857 119.938 290.36 127.669 282.017C130.053 279.444 131.649 276.423 132.479 273.251C125.772 275.187 118.251 273.687 112.757 268.596V268.596Z" fill="#FCAD6D"/>
</svg>
